<?xml version="1.0" encoding="UTF-8" standalone="no"?>
<svg
   width="154.99013"
   height="92.637009"
   viewBox="0 0 154.99013 92.637009"
   fill="none"
   version="1.1"
   id="svg5"
   sodipodi:docname="ehri-logo-no-title.svg"
   inkscape:version="1.4.2 (f4327f4, 2025-05-13)"
   xmlns:inkscape="http://www.inkscape.org/namespaces/inkscape"
   xmlns:sodipodi="http://sodipodi.sourceforge.net/DTD/sodipodi-0.dtd"
   xmlns="http://www.w3.org/2000/svg"
   xmlns:svg="http://www.w3.org/2000/svg">
  <sodipodi:namedview
     id="namedview5"
     pagecolor="#ffffff"
     bordercolor="#000000"
     borderopacity="0.25"
     inkscape:showpageshadow="2"
     inkscape:pageopacity="0.0"
     inkscape:pagecheckerboard="0"
     inkscape:deskcolor="#d1d1d1"
     inkscape:zoom="6.5080645"
     inkscape:cx="77.442379"
     inkscape:cy="74.292441"
     inkscape:window-width="1920"
     inkscape:window-height="1009"
     inkscape:window-x="-8"
     inkscape:window-y="-8"
     inkscape:window-maximized="1"
     inkscape:current-layer="svg5" />
  <g
     clip-path="url(#clip0_110_14)"
     id="g5"
     transform="translate(-0.00486755,-0.00598155)">
    <mask
       id="mask0_110_14"
       maskUnits="userSpaceOnUse"
       x="0"
       y="0"
       width="155"
       height="124">
      <path
         d="M 154.995,0 H 0.00476074 V 124 H 154.995 Z"
         fill="#ffffff"
         id="path1" />
    </mask>
    <g
       mask="url(#mask0_110_14)"
       id="g4">
      <path
         d="m 115.569,45.1403 c 0.552,-0.5187 0.826,-1.1889 0.826,-2.0175 0,-0.8286 -0.277,-1.5056 -0.826,-2.0344 -0.552,-0.5288 -1.263,-0.7915 -2.137,-0.7915 h -4.087 c -0.105,0 -0.156,0.0505 -0.156,0.1549 v 5.3083 c 0,0.1044 0.051,0.1549 0.156,0.1549 h 4.087 c 0.874,0 1.585,-0.2593 2.137,-0.7747 z m 21.206,12.7587 c 0,0.1045 -0.037,0.192 -0.108,0.2628 -0.075,0.0741 -0.163,0.1077 -0.264,0.1077 h -3.651 c -0.105,0 -0.193,-0.037 -0.264,-0.1077 -0.074,-0.0708 -0.108,-0.1617 -0.108,-0.2628 V 36.9152 c 0,-0.1044 0.037,-0.192 0.108,-0.2627 0.071,-0.0708 0.163,-0.1078 0.264,-0.1078 h 3.651 c 0.105,0 0.193,0.037 0.264,0.1078 0.071,0.0741 0.108,0.1617 0.108,0.2627 z m -15.821,0.1247 c 0,0.165 -0.115,0.2492 -0.342,0.2492 h -3.837 c -0.21,0 -0.356,-0.0943 -0.437,-0.2796 l -3.901,-8.5989 c -0.041,-0.0809 -0.105,-0.1247 -0.187,-0.1247 h -2.902 c -0.105,0 -0.156,0.0506 -0.156,0.155 v 8.4743 c 0,0.1045 -0.037,0.192 -0.108,0.2628 -0.075,0.0741 -0.163,0.1077 -0.264,0.1077 h -3.651 c -0.105,0 -0.193,-0.037 -0.264,-0.1077 -0.074,-0.0708 -0.108,-0.1617 -0.108,-0.2628 V 36.9152 c 0,-0.1044 0.037,-0.192 0.108,-0.2627 0.071,-0.0708 0.163,-0.1078 0.264,-0.1078 h 8.927 c 1.331,0 2.503,0.2695 3.512,0.8084 1.009,0.5389 1.788,1.3035 2.34,2.2971 0.552,0.9936 0.826,2.1421 0.826,3.4456 0,1.4079 -0.352,2.6138 -1.06,3.6175 -0.708,1.0037 -1.696,1.7144 -2.966,2.1253 -0.105,0.0404 -0.136,0.1145 -0.095,0.2189 l 4.243,8.7843 c 0.041,0.0842 0.061,0.1448 0.061,0.1852 M 93.733,76.4275 c 0,0.4041 -0.1186,0.7241 -0.3488,0.9532 -0.2337,0.2324 -0.552,0.3469 -0.9584,0.3469 h -13.756 c -0.4063,0 -0.7281,-0.1145 -0.9583,-0.3469 -0.2337,-0.2291 -0.3489,-0.5491 -0.3489,-0.9532 v -21.991 c 0,-0.2896 -0.1456,-0.4345 -0.4334,-0.4345 H 63.3493 c -0.2912,0 -0.4368,0.1449 -0.4368,0.4345 v 21.991 c 0,0.4041 -0.1186,0.7241 -0.3489,0.9532 -0.2336,0.2324 -0.552,0.3469 -0.9583,0.3469 h -13.756 c -0.4064,0 -0.7247,-0.1145 -0.9584,-0.3469 -0.2336,-0.2291 -0.3488,-0.5491 -0.3488,-0.9532 V 18.4103 c 0,-0.4041 0.1152,-0.7207 0.3488,-0.9531 0.2303,-0.2291 0.552,-0.347 0.9584,-0.347 h 13.756 c 0.4063,0 0.7247,0.1179 0.9583,0.347 0.2303,0.2324 0.3489,0.549 0.3489,0.9531 v 21.2129 c 0,0.2897 0.1456,0.4345 0.4368,0.4345 h 13.5799 c 0.2878,0 0.4334,-0.1448 0.4334,-0.4345 V 18.4103 c 0,-0.4041 0.1152,-0.7207 0.3489,-0.9531 0.2302,-0.2291 0.552,-0.347 0.9583,-0.347 h 13.756 c 0.4064,0 0.7247,0.1179 0.9584,0.347 0.2302,0.2324 0.3488,0.549 0.3488,0.9531 V 76.4241 Z M 35.3836,57.9024 c 0,0.1044 -0.0372,0.192 -0.1084,0.2627 -0.0745,0.0741 -0.1625,0.1078 -0.2641,0.1078 H 20.5914 c -0.105,0 -0.193,-0.037 -0.2642,-0.1078 -0.0745,-0.0707 -0.1083,-0.1616 -0.1083,-0.2627 V 36.9186 c 0,-0.1044 0.0372,-0.192 0.1083,-0.2628 0.0712,-0.0707 0.1626,-0.1077 0.2642,-0.1077 h 14.4197 c 0.105,0 0.193,0.037 0.2641,0.1077 0.0712,0.0741 0.1084,0.1617 0.1084,0.2628 v 3.0111 c 0,0.1044 -0.0372,0.192 -0.1084,0.2627 -0.0711,0.0708 -0.1625,0.1078 -0.2641,0.1078 H 24.7737 c -0.105,0 -0.1558,0.0506 -0.1558,0.155 v 4.8097 c 0,0.1045 0.0508,0.155 0.1558,0.155 h 6.7087 c 0.1049,0 0.193,0.037 0.2641,0.1078 0.0711,0.0741 0.1084,0.1616 0.1084,0.2627 v 3.0112 c 0,0.1044 -0.0373,0.1919 -0.1084,0.2627 -0.0745,0.0741 -0.1625,0.1078 -0.2641,0.1078 h -6.7087 c -0.105,0 -0.1558,0.0505 -0.1558,0.1549 v 5.0287 c 0,0.1044 0.0508,0.1549 0.1558,0.1549 h 10.2374 c 0.105,0 0.193,0.0371 0.2641,0.1078 0.0712,0.0741 0.1084,0.1617 0.1084,0.2627 v 3.0112 z M 155.005,40.2666 C 153.901,27.4641 153.173,14.6077 152.137,1.80516 145.066,2.08472 137.998,1.65022 130.944,1.11805 123.256,1.08773 115.556,1.39761 107.868,1.44476 97.9526,1.31677 88.0911,-0.242702 78.1652,0.0402257 70.2205,0.225476 62.4587,0.737442 54.558,0.892378 48.7433,1.35719 42.9558,0.96311 37.192,0.966479 c -1.9506,0.138091 -3.9114,-0.454706 -5.8282,0 C 27.4829,0.275999 23.094,0.670078 19.1521,0.528614 12.7618,0.437672 6.38164,0.0570666 0.00486755,0.114326 0.763443,15.6013 1.21385,31.1286 3.80113,46.4303 3.66229,48.4412 2.81227,50.4688 2.89694,52.5807 3.18479,56.4103 2.731,60.2265 2.86646,64.0729 c -0.56555,8.6428 0.35219,17.198 1.4799,25.7768 23.44474,1.0677 46.87924,3.4389 70.38154,2.6272 25.9641,-0.6871 51.8951,-3.0785 77.8621,-0.8353 1.054,-17.097 1.585,-34.268 2.405,-51.3852"
         fill="#472c56"
         id="path2" />
    </g>
  </g>
  <defs
     id="defs5">
    <clipPath
       id="clip0_110_14">
      <rect
         width="155"
         height="124"
         fill="#ffffff"
         id="rect5"
         x="0"
         y="0" />
    </clipPath>
  </defs>
</svg>
